<?xml version="1.0" encoding="utf-8"?>
<!-- Generator: Adobe Illustrator 24.1.2, SVG Export Plug-In . SVG Version: 6.00 Build 0)  -->
<svg version="1.1" id="Layer_1" xmlns="http://www.w3.org/2000/svg" xmlns:xlink="http://www.w3.org/1999/xlink" x="0px" y="0px"
	 viewBox="0 0 113.5 41" style="enable-background:new 0 0 113.5 41;" xml:space="preserve">
<style type="text/css">
	.st0{fill:url(#SVGID_1_);}
	.st1{fill:none;stroke:#00CC33;stroke-miterlimit:10;}
	.st2{fill:#00CC33;stroke:#00CC33;stroke-miterlimit:10;}
	.st3{fill:#00CC33;}
</style>
<linearGradient id="SVGID_1_" gradientUnits="userSpaceOnUse" x1="66.6209" y1="21.45" x2="104.2353" y2="21.45" gradientTransform="matrix(1 0 0 -1 0 42)">
	<stop  offset="0" style="stop-color:#000000"/>
	<stop  offset="1" style="stop-color:#007300"/>
</linearGradient>
<path class="st0" d="M100.3,35.2H70.6c-2.2,0-3.9-1.8-3.9-3.9V9.8c0-2.2,1.8-3.9,3.9-3.9h29.7c2.2,0,3.9,1.8,3.9,3.9v21.4
	C104.2,33.4,102.5,35.2,100.3,35.2z"/>
<g>
	<path class="st1" d="M91.3,19.5l-9.4-5.9c-0.4-0.2-0.8-0.2-1.2,0c-0.4,0.2-0.6,0.6-0.6,1v11.7c0,0.4,0.2,0.8,0.6,1
		c0.2,0.1,0.4,0.1,0.6,0.1s0.4-0.1,0.6-0.2l9.4-5.9c0.3-0.2,0.6-0.6,0.6-1S91.6,19.7,91.3,19.5L91.3,19.5z M82.4,24.3v-7.5l6,3.8
		L82.4,24.3z"/>
	<path class="st2" d="M98.9,5.2H70.6c-3.2,0-5.9,2.6-5.9,5.9v18.8c0,3.2,2.6,5.9,5.9,5.9h28.3c3.2,0,5.9-2.6,5.9-5.9V11.1
		C104.8,7.9,102.2,5.2,98.9,5.2z M102.5,29.9c0,1.9-1.6,3.5-3.5,3.5H70.6c-1.9,0-3.5-1.6-3.5-3.5V11.1c0-1.9,1.6-3.5,3.5-3.5h28.3
		c1.9,0,3.5,1.6,3.5,3.5v18.8H102.5z"/>
</g>
<g>
	<path class="st3" d="M23.9,16.2l-5.3,7.4H18l-5.3-7.4v12h-2.5V12.6c1,0,1.9,0,2.9,0l5.2,7.3l5.2-7.3h2.9v15.7h-2.5V16.2z"/>
	<path class="st3" d="M40.4,22.7c0,3.3-2.3,5.7-5.7,5.7c-3.4,0-5.7-2.5-5.7-5.7c0-3.2,2.3-5.8,5.7-5.8C38.1,17,40.4,19.5,40.4,22.7z
		 M31.3,22.7c0,2,1.3,3.6,3.4,3.6c2.1,0,3.4-1.6,3.4-3.6c0-1.9-1.4-3.6-3.4-3.6C32.6,19.1,31.3,20.8,31.3,22.7z"/>
	<path class="st3" d="M53.2,17.2l-4.7,11.1h-2.5l-4.7-11.1h2.6l1.5,3.6l1.9,5.1l1.7-4.7l1.7-4H53.2z"/>
</g>
</svg>
